# xmcd
# 
# Track frame offsets:
#     150
#     26695
#     44220
#     68262
# 
# Disc length: 1226
# 
# Revision: 4
# Processed by: cddbd v1.5.2PL0 Copyright (c) Steve Scherf et al.
# Submitted via: BonkEnc v1.0.5
# 
DISCID=2f04c804
DTITLE=成底ゆう子 - ふるさとからの声
DYEAR=0
DGENRE=
TTITLE0=ふるさとからの声
TTITLE1=知床旅情
TTITLE2=この地球にうまれて
TTITLE3=里景色
EXTD=
EXTT0=
EXTT1=
EXTT2=
EXTT3=
PLAYORDER=
